<svg width="64" height="64" viewBox="0 0 64 64" fill="none" xmlns="http://www.w3.org/2000/svg">
  <rect width="64" height="64" rx="12" fill="#6366F1"/>
  <path d="M20 16C18.8954 16 18 16.8954 18 18V46C18 47.1046 18.8954 48 20 48H44C45.1046 48 46 47.1046 46 46V18C46 16.8954 45.1046 16 44 16H20Z" fill="white"/>
  <rect x="23" y="22" width="18" height="2" rx="1" fill="#E0E7FF"/>
  <rect x="23" y="30" width="18" height="2" rx="1" fill="#E0E7FF"/>
  <rect x="23" y="38" width="12" height="2" rx="1" fill="#E0E7FF"/>
  <path d="M28.5 26L27 24.5L25.5 26L24 24.5L25.5 23L24 21.5L25.5 20L27 21.5L28.5 20L30 21.5L28.5 23L30 24.5L28.5 26Z" fill="#6366F1"/>
  <circle cx="26.5" cy="31" r="1.5" fill="#6366F1"/>
  <path d="M25 38.5L26.5 40L30 36.5" stroke="#10B981" stroke-width="2" stroke-linecap="round" stroke-linejoin="round"/>
</svg>
